solid OpenSCAD_Model
  facet normal -1 0 0
    outer loop
      vertex 0 2 22
      vertex 0 0 20
      vertex 0 -8 22
    endloop
  endfacet
  facet normal -1 0 0
    outer loop
      vertex 0 -10 20
      vertex 0 -10 40
      vertex 0 -8 22
    endloop
  endfacet
  facet normal -1 0 0
    outer loop
      vertex 0 -10 20
      vertex 0 -8 22
      vertex 0 0 20
    endloop
  endfacet
  facet normal -1 0 0
    outer loop
      vertex 0 0 20
      vertex 0 2 22
      vertex 0 2 2
    endloop
  endfacet
  facet normal -1 0 0
    outer loop
      vertex 0 -8 22
      vertex 0 -10 40
      vertex 0 -8 40
    endloop
  endfacet
  facet normal -1 0 0
    outer loop
      vertex 0 2 2
      vertex 0 20 2
      vertex 0 20 0
    endloop
  endfacet
  facet normal -1 0 0
    outer loop
      vertex 0 2 2
      vertex 0 20 0
      vertex 0 0 0
    endloop
  endfacet
  facet normal -1 0 0
    outer loop
      vertex 0 0 20
      vertex 0 2 2
      vertex 0 0 0
    endloop
  endfacet
  facet normal 0 -1 0
    outer loop
      vertex 0 -10 40
      vertex 0 -10 20
      vertex 50 -10 20
    endloop
  endfacet
  facet normal 0 -1 0
    outer loop
      vertex 50 -10 40
      vertex 0 -10 40
      vertex 50 -10 20
    endloop
  endfacet
  facet normal 0 0 -1
    outer loop
      vertex 0 -10 20
      vertex 0 0 20
      vertex 50 -10 20
    endloop
  endfacet
  facet normal 0 0 -1
    outer loop
      vertex 50 -10 20
      vertex 0 0 20
      vertex 50 0 20
    endloop
  endfacet
  facet normal 0 -1 0
    outer loop
      vertex 20 0 8
      vertex 0 0 0
      vertex 50 0 0
    endloop
  endfacet
  facet normal 0 -1 0
    outer loop
      vertex 20 0 8
      vertex 20 0 19
      vertex 0 0 20
    endloop
  endfacet
  facet normal 0 -1 0
    outer loop
      vertex 0 0 20
      vertex 0 0 0
      vertex 20 0 8
    endloop
  endfacet
  facet normal 0 -1 0
    outer loop
      vertex 50 0 20
      vertex 0 0 20
      vertex 20 0 19
    endloop
  endfacet
  facet normal 0 -1 0
    outer loop
      vertex 50 0 20
      vertex 32 0 19
      vertex 50 0 0
    endloop
  endfacet
  facet normal 0 -1 0
    outer loop
      vertex 50 0 20
      vertex 20 0 19
      vertex 32 0 19
    endloop
  endfacet
  facet normal 0 -1 0
    outer loop
      vertex 32 0 19
      vertex 32 0 8
      vertex 50 0 0
    endloop
  endfacet
  facet normal 0 -1 0
    outer loop
      vertex 32 0 8
      vertex 20 0 8
      vertex 50 0 0
    endloop
  endfacet
  facet normal 0 0 -1
    outer loop
      vertex 0 0 0
      vertex 0 20 0
      vertex 50 0 0
    endloop
  endfacet
  facet normal 0 0 -1
    outer loop
      vertex 50 0 0
      vertex 0 20 0
      vertex 50 20 0
    endloop
  endfacet
  facet normal 0 1 0
    outer loop
      vertex 0 20 0
      vertex 0 20 2
      vertex 50 20 0
    endloop
  endfacet
  facet normal 0 1 0
    outer loop
      vertex 50 20 0
      vertex 0 20 2
      vertex 50 20 2
    endloop
  endfacet
  facet normal 0 0 1
    outer loop
      vertex 0 20 2
      vertex 0 2 2
      vertex 50 2 2
    endloop
  endfacet
  facet normal 0 0 1
    outer loop
      vertex 50 20 2
      vertex 0 20 2
      vertex 50 2 2
    endloop
  endfacet
  facet normal 0 1 0
    outer loop
      vertex 20 2 19
      vertex 0 2 22
      vertex 50 2 22
    endloop
  endfacet
  facet normal 0 1 0
    outer loop
      vertex 32 2 19
      vertex 20 2 19
      vertex 50 2 22
    endloop
  endfacet
  facet normal 0 1 0
    outer loop
      vertex 0 2 2
      vertex 0 2 22
      vertex 20 2 8
    endloop
  endfacet
  facet normal 0 1 0
    outer loop
      vertex 0 2 2
      vertex 20 2 8
      vertex 50 2 2
    endloop
  endfacet
  facet normal 0 1 0
    outer loop
      vertex 32 2 19
      vertex 50 2 2
      vertex 32 2 8
    endloop
  endfacet
  facet normal 0 1 0
    outer loop
      vertex 20 2 8
      vertex 32 2 8
      vertex 50 2 2
    endloop
  endfacet
  facet normal 0 1 0
    outer loop
      vertex 50 2 2
      vertex 32 2 19
      vertex 50 2 22
    endloop
  endfacet
  facet normal 0 1 0
    outer loop
      vertex 20 2 8
      vertex 0 2 22
      vertex 20 2 19
    endloop
  endfacet
  facet normal 0 0 1
    outer loop
      vertex 0 2 22
      vertex 0 -8 22
      vertex 50 -8 22
    endloop
  endfacet
  facet normal 0 0 1
    outer loop
      vertex 50 2 22
      vertex 0 2 22
      vertex 50 -8 22
    endloop
  endfacet
  facet normal 0 1 0
    outer loop
      vertex 0 -8 22
      vertex 0 -8 40
      vertex 50 -8 22
    endloop
  endfacet
  facet normal 0 1 0
    outer loop
      vertex 50 -8 22
      vertex 0 -8 40
      vertex 50 -8 40
    endloop
  endfacet
  facet normal 0 0 1
    outer loop
      vertex 0 -8 40
      vertex 0 -10 40
      vertex 50 -10 40
    endloop
  endfacet
  facet normal 0 0 1
    outer loop
      vertex 50 -8 40
      vertex 0 -8 40
      vertex 50 -10 40
    endloop
  endfacet
  facet normal 1 0 0
    outer loop
      vertex 50 -8 22
      vertex 50 -10 20
      vertex 50 0 20
    endloop
  endfacet
  facet normal 1 0 0
    outer loop
      vertex 50 0 0
      vertex 50 2 2
      vertex 50 0 20
    endloop
  endfacet
  facet normal 1 0 0
    outer loop
      vertex 50 0 0
      vertex 50 20 0
      vertex 50 2 2
    endloop
  endfacet
  facet normal 1 0 0
    outer loop
      vertex 50 2 22
      vertex 50 -8 22
      vertex 50 0 20
    endloop
  endfacet
  facet normal 1 0 0
    outer loop
      vertex 50 -8 22
      vertex 50 -8 40
      vertex 50 -10 40
    endloop
  endfacet
  facet normal 1 0 0
    outer loop
      vertex 50 -10 40
      vertex 50 -10 20
      vertex 50 -8 22
    endloop
  endfacet
  facet normal 1 0 0
    outer loop
      vertex 50 2 2
      vertex 50 2 22
      vertex 50 0 20
    endloop
  endfacet
  facet normal 1 0 0
    outer loop
      vertex 50 20 2
      vertex 50 2 2
      vertex 50 20 0
    endloop
  endfacet
  facet normal 1 0 0
    outer loop
      vertex 20 2 8
      vertex 20 2 19
      vertex 20 0 19
    endloop
  endfacet
  facet normal 1 0 0
    outer loop
      vertex 20 0 8
      vertex 20 2 8
      vertex 20 0 19
    endloop
  endfacet
  facet normal 0 0 1
    outer loop
      vertex 32 0 8
      vertex 32 2 8
      vertex 20 2 8
    endloop
  endfacet
  facet normal 0 0 1
    outer loop
      vertex 20 0 8
      vertex 32 0 8
      vertex 20 2 8
    endloop
  endfacet
  facet normal -1 0 0
    outer loop
      vertex 32 2 19
      vertex 32 2 8
      vertex 32 0 19
    endloop
  endfacet
  facet normal -1 0 0
    outer loop
      vertex 32 0 19
      vertex 32 2 8
      vertex 32 0 8
    endloop
  endfacet
  facet normal 0 0 -1
    outer loop
      vertex 32 2 19
      vertex 32 0 19
      vertex 20 2 19
    endloop
  endfacet
  facet normal 0 0 -1
    outer loop
      vertex 20 2 19
      vertex 32 0 19
      vertex 20 0 19
    endloop
  endfacet
endsolid OpenSCAD_Model
